<!DOCTYPE svg PUBLIC "-//W3C//DTD SVG 1.1//EN" "http://www.w3.org/Graphics/SVG/1.1/DTD/svg11.dtd">

<!-- Uploaded to: SVG Repo, www.svgrepo.com, Transformed by: SVG Repo Mixer Tools -->
<svg width="1rem" height="1rem" style="padding: 0%" viewBox="0 0 36.00 36.00" xmlns="http://www.w3.org/2000/svg" xmlns:xlink="http://www.w3.org/1999/xlink" aria-hidden="true" role="img" class="iconify iconify--twemoji" preserveAspectRatio="xMidYMid meet" fill="#000000" stroke="#000000" stroke-width="0.00036" transform="rotate(0)">

<g id="SVGRepo_bgCarrier" stroke-width="0"/>

<g id="SVGRepo_tracerCarrier" stroke-linecap="round" stroke-linejoin="round" stroke="#CCCCCC" stroke-width="0.36"/>

<g id="SVGRepo_iconCarrier">

<path fill="#04479f" d="M1 17l8-7l16 1l1 16l-7 8s.001-5.999-6-12s-12-6-12-6z"/>

<path fill="#FFAC33" d="M.973 35s-.036-7.979 2.985-11S15 21.187 15 21.187S14.999 29 11.999 32c-3 3-11.026 3-11.026 3z"/>

<circle fill="#FFCC4D" cx="8.999" cy="27" r="4"/>

<path fill="#008efa" d="M35.999 0s-10 0-22 10c-6 5-6 14-4 16s11 2 16-4c10-12 10-22 10-22z"/>

<path d="M26.999 5a3.996 3.996 0 0 0-3.641 2.36A3.969 3.969 0 0 1 24.999 7a4 4 0 0 1 4 4c0 .586-.133 1.139-.359 1.64A3.993 3.993 0 0 0 30.999 9a4 4 0 0 0-4-4z" fill="#000000"/>

<path fill="#04479f" d="M8 28s0-4 1-5s13.001-10.999 14-10s-9.001 13-10.001 14S8 28 8 28z"/>

</g>

</svg>